# xmcd
#
# Track frame offsets:
#	150
#	11855
#	24547
#	35115
#	45797
#	59525
#	72922
#	85107
#	98265
#	108600
#
# Disc length: 1617 seconds
#
# Revision: 1
# Processed by: cddbd v1.4PL0 Copyright (c) Steve Scherf et al.
# Submitted via: audiograbber 1.80
#
DISCID=79064f0a
DTITLE=Various Artist - Country Gold
DYEAR=1900
DGENRE=
TTITLE0=Patsy Cline - Walkin After midnight
TTITLE1=Johnny Cash - Folsom prison blues
TTITLE2=Dolly Parton - Honky tonk angel
TTITLE3=Jim Reeves - Am I Losing you
TTITLE4=Willie Nelson - Home is where you're Happy
TTITLE5=Lynn Anderson - Rose Garden
TTITLE6=George Jones - She thinks I Still Care
TTITLE7=Jerry Lee Lewis - You Win Again
TTITLE8=Freddy Fender - Before the next teardrop falls
TTITLE9=Kenny Rogers - Ruby( Don't take your love to town)
EXTD=
EXTT0=
EXTT1=
EXTT2=
EXTT3=
EXTT4=
EXTT5=
EXTT6=
EXTT7=
EXTT8=
EXTT9=
PLAYORDER=
